<svg width="189" height="23" viewBox="0 0 189 23" fill="none" xmlns="http://www.w3.org/2000/svg">
<path d="M160.053 8.39361H154.006V0.253479H151.383C148.93 0.253479 146.934 2.24582 146.934 4.69355V22.4538H154.006V12.8621H160.053V22.4538H167.125V0.253479H160.053V8.39361Z" fill="#090A31"/>
<path d="M52.847 4.69348V22.4538H59.8628V13.7159H67.2494V9.47509H59.8628V5.06348H68.7895V0.224945H57.2675C54.8148 0.253407 52.847 2.24575 52.847 4.69348Z" fill="#090A31"/>
<path d="M94.3432 4.69355V22.4538H110.514V17.7007H101.388V13.1752H109.116V8.96285H101.388V4.92124H110.571V0.253479H98.8208C96.3111 0.253479 94.3432 2.24582 94.3432 4.69355Z" fill="#090A31"/>
<path d="M169.435 0.253479V5.12048H175.71V22.4538H178.277C180.729 22.4538 182.726 20.4615 182.726 18.0138V5.12048H189V0.253479H169.435Z" fill="#090A31"/>
<path d="M113.508 4.69355V22.4538H120.524V0.253479H117.957C115.476 0.253479 113.508 2.24582 113.508 4.69355Z" fill="#090A31"/>
<path d="M41.211 0.253479H28.7194V22.4538H40.8117C43.2929 22.4538 45.6601 21.4577 47.4283 19.7215C49.168 17.9853 50.1662 15.5945 50.1662 13.1183V9.16208C50.1662 6.79973 49.225 4.52278 47.5424 2.84352C45.8597 1.19273 43.5781 0.253479 41.211 0.253479ZM42.5799 15.1106C42.5799 16.5053 41.4391 17.6438 40.0417 17.6438H35.7352V4.722H38.5301C40.7832 4.722 42.5799 6.54357 42.5799 8.76361V15.1106Z" fill="#090A31"/>
<path d="M86.9566 12.1221H86.6714V12.0937H87.2133C89.4663 12.0937 91.2916 10.2721 91.2916 8.0236V5.66126C91.2916 2.67275 88.8674 0.253479 85.8728 0.253479H76.3188C73.8661 0.253479 71.8697 2.24582 71.8697 4.69355V22.4538H78.8855V14.1998C80.1404 14.1998 81.1101 14.1998 81.8231 14.1714C82.3649 14.1429 82.8783 14.5414 82.9924 15.0822C83.5628 17.5584 84.1617 20.0061 84.7321 22.4823H92.1187C91.4342 19.8069 90.7212 17.1599 90.0367 14.4845C89.666 13.0898 88.4111 12.1221 86.9566 12.1221ZM83.905 8.05206C83.905 9.01977 83.1064 9.81671 82.1368 9.81671H78.5718V4.46585H81.7375C82.9353 4.46585 83.905 5.43356 83.905 6.62896V8.05206Z" fill="#090A31"/>
<path d="M137.037 17.7291H135.041C133.016 17.7291 131.362 16.0783 131.362 14.0575V7.16968C131.362 6.17351 132.16 5.37658 133.158 5.37658H142.541L142.998 0.908047C138.919 -0.258894 134.613 -0.315815 130.535 0.822665C128.053 1.50575 126.029 3.27039 125.002 5.60427C123.405 9.24741 123.262 13.3744 124.66 17.1314C125.43 19.266 127.141 20.9168 129.251 21.6853C134.014 23.393 139.262 23.2507 143.939 21.2868V10.1867H137.066V17.7291H137.037Z" fill="#090A31"/>
<path d="M15.3437 22.4538C17.34 22.3115 19.1368 21.23 20.1635 19.5507C21.2187 17.8714 21.3613 15.7653 20.5913 13.9437L20.4487 13.6306C19.5075 11.6667 18.2527 9.87363 16.7411 8.33668L8.64154 0.253479H14.9159C18.9657 0.253479 22.2454 3.5266 22.2454 7.5682V15.1106C22.274 19.0384 19.2223 22.2261 15.3437 22.4538Z" fill="#45A1D9"/>
<path d="M3.45088 0.737234L13.1191 10.3859C13.6609 10.9266 13.6609 11.809 13.1191 12.3497L3.45088 21.9983C3.13717 22.3114 2.70937 22.4822 2.28158 22.4822H0V0.281849H2.28158C2.73789 0.253387 3.16569 0.424152 3.45088 0.737234Z" fill="#026CAF"/>
<path d="M20.4486 13.6306C19.5075 11.6667 18.2526 9.87359 16.7411 8.33664C18.3952 10.0444 18.3667 12.7767 16.684 14.456L8.66998 22.4538H14.9728C17.0263 22.4538 18.9656 21.4292 20.1064 19.693C21.2472 17.9853 21.4468 15.7937 20.6197 13.9152L20.4486 13.6306Z" fill="#090A31"/>
</svg>
